<svg width="122" height="122" viewBox="0 0 122 122" fill="none" xmlns="http://www.w3.org/2000/svg">
  <rect width="122" height="122" fill="url(#paint0_linear_0_1)" />
  <rect x="0.5" y="0.5" width="121" height="121" stroke="white" stroke-opacity="0.1" />
  <circle cx="61.5" cy="61.5" r="16.5" stroke="#FFF3F3" stroke-linecap="round" stroke-linejoin="round" />
  <path d="M74.7069 72.0001L89.5 86.7929" stroke="#FFF3F3" stroke-linecap="round" stroke-linejoin="round" />
  <path d="M61.5044 107C54.3792 105.516 49.5786 102.998 46.6373 101.117C27.1176 88.6137 24 62.8174 24 46.6125V32.2707C24 30.3151 25.6848 28.7009 27.8402 28.596C32.9034 28.3524 40.3175 27.2608 48.0102 23.378C51.847 21.4504 55.4046 19.0028 58.5842 16.1032C59.392 15.3919 60.4278 15 61.5 15C62.5722 15 63.608 15.3919 64.4158 16.1032C67.5954 19.0028 71.153 21.4504 74.9898 23.378C82.6825 27.2608 90.0967 28.356 95.1599 28.596C97.317 28.7009 99 30.3205 99 32.2707V46.6054C99 62.8103 95.8824 88.6066 76.361 101.11C73.4214 102.991 68.6208 105.508 61.4974 106.993" stroke="#FFF3F3" stroke-linecap="round" stroke-linejoin="round" />
  <defs>
    <linearGradient id="paint0_linear_0_1" x1="61" y1="0" x2="61" y2="122" gradientUnits="userSpaceOnUse">
      <stop stop-color="#C73C45" />
      <stop offset="1" stop-color="#A9222A" />
    </linearGradient>
  </defs>
</svg>