<svg width="109" height="30" viewBox="0 0 109 30" fill="none" xmlns="http://www.w3.org/2000/svg">
<path d="M32.877 1.84826V5.97782C32.8767 6.46791 32.6779 6.93782 32.3243 7.28436C31.9707 7.6309 31.4912 7.82574 30.9911 7.82609H28.9948L30.0875 9.26087L30.7888 10.1739L32.8823 12.913H29.3848L27.2926 10.1739L25.4985 7.82609H20.2335V12.913H17.4387V5.08696H29.3275C29.5277 5.08696 29.7196 5.00904 29.8611 4.87034C30.0026 4.73165 30.0821 4.54353 30.0821 4.34739V3.4787C30.0821 3.28255 30.0026 3.09444 29.8611 2.95574C29.7196 2.81705 29.5277 2.73913 29.3275 2.73913H18.2212L17.4387 0H30.9911C31.4912 0.000345494 31.9707 0.195184 32.3243 0.541725C32.6779 0.888267 32.8767 1.35818 32.877 1.84826ZM66.1267 0H52.5742V0.890868C52.5746 1.38095 52.7734 1.85086 53.127 2.1974C53.4805 2.54395 53.96 2.73879 54.4601 2.73913H64.4631C64.6632 2.73913 64.8551 2.81705 64.9967 2.95574C65.1382 3.09444 65.2177 3.28255 65.2177 3.4787V4.34739C65.2177 4.54353 65.1382 4.73165 64.9967 4.87034C64.8551 5.00904 64.6632 5.08696 64.4631 5.08696H52.5742V12.913H55.3691V7.82609H66.1267C66.6267 7.82574 67.1062 7.6309 67.4598 7.28436C67.8134 6.93782 68.0122 6.46791 68.0125 5.97782V1.84826C68.0122 1.35818 67.8134 0.888267 67.4598 0.541725C67.1062 0.195184 66.6267 0.000345494 66.1267 0ZM70.1194 0L70.9019 2.73913H76.863V12.913H79.6578V2.73913H85.5963L86.3788 0H70.1194ZM88.6374 0V12.913H91.4322V0H88.6374ZM47.2466 0V1.73609L46.2525 2.73913L44.0565 4.93956L43.9101 5.08696L42.6591 6.34174L41.408 5.08696L41.2616 4.93956L39.0657 2.73913L38.0648 1.73609V0H35.27V2.85L37.4992 5.08696L38.0648 5.65435L40.2302 7.82609L40.7026 8.30087L41.259 8.85913V12.913H44.0538V8.85913L44.6101 8.30087L45.0826 7.82609L47.248 5.65435L47.8136 5.08696L50.0429 2.8513V0H47.2466ZM0 0V2.73913H14.3936L15.1762 0H0ZM15.1722 10.1739V11.0648C15.1718 11.5549 14.973 12.0248 14.6194 12.3713C14.2658 12.7179 13.7863 12.9127 13.2863 12.913H1.88987C1.38981 12.9127 0.910335 12.7179 0.556742 12.3713C0.203148 12.0248 0.00434516 11.5549 0.00399264 11.0648V5.08696H2.79886V9.43435C2.79886 9.53147 2.81838 9.62764 2.85631 9.71737C2.89423 9.8071 2.94981 9.88862 3.01989 9.9573C3.08996 10.026 3.17315 10.0804 3.2647 10.1176C3.35626 10.1548 3.45438 10.1739 3.55348 10.1739H15.1722ZM93.8278 0V2.73913H109V0H93.8278ZM109 10.1739V11.0648C109 11.5549 108.801 12.0248 108.447 12.3713C108.094 12.7179 107.614 12.9127 107.114 12.913H95.7177C95.2177 12.9127 94.7382 12.7179 94.3846 12.3713C94.031 12.0248 93.8322 11.5549 93.8318 11.0648V5.08696H96.6267V9.43435C96.6267 9.63049 96.7062 9.8186 96.8477 9.9573C96.9893 10.096 97.1812 10.1739 97.3813 10.1739H109ZM38.3882 27.2609L37.6057 30H26.2226V17.087H29.0174V27.2609H38.3882ZM67.8755 17.087V22.753L66.8107 23.5435L67.8755 24.3339V30H55.6313V22.1739H65.0806V19.8261H55.6313V17.087H67.8755ZM65.0806 24.913H58.4261V27.2609H65.0806V24.913ZM73.199 22.1739V19.8261H81.9989L82.7814 17.087H70.4042V24.913H79.9866V27.2609H71.1907L70.4081 30H82.7854V22.1739H73.199ZM40.7253 17.087L41.5078 19.8261H52.1869L52.9695 17.087H40.7253ZM52.9695 22.1739V30H50.1746V24.913H43.5201V30H40.7253V22.1739H52.9695Z" fill="white"/>
</svg>
